# xmcd
#
# Track frame offsets: 
#        150
#        21541
#        42706
#        66236
#        90796
#        108496
#        129589
#        143865
#        167561
#        185938
#        205984
#        222177
#        236231
#        252691
#
# Disc length: 3621 seconds
#
# Revision: 1
# Processed by: cddbd v1.5.2PL0 Copyright (c) Steve Scherf et al.
# Submitted via: ExactAudioCopyFreeDBPlugin 1.0
#
DISCID=de0e230e
DTITLE=中國群星  - 夢回香巴拉 DSD (中國版) 
DYEAR=2007
DGENRE=A Cappella
TTITLE0=01. 雅魯藏布
TTITLE1=02. 浪拉山情
TTITLE2=03. 跨越世界的河流
TTITLE3=04. 香巴拉並不遙遠
TTITLE4=05. 坐上火車去拉薩
TTITLE5=06. 呼倫貝爾大草原
TTITLE6=07. 望情天涯（原創）
TTITLE7=08. 雅魯藏布情歌 
TTITLE8=09. 小河淌水 
TTITLE9=10. 天脈傳奇 
TTITLE10=11. 山歌好比春江水 
TTITLE11=12. 大地飛歌 
TTITLE12=13. 月光落地的聲音
TTITLE13=14. 藍色的蒙古高原 
EXTD=
EXTT0=
EXTT1=
EXTT2=
EXTT3=
EXTT4=
EXTT5=
EXTT6=
EXTT7=
EXTT8=
EXTT9=
EXTT10=
EXTT11=
EXTT12=
EXTT13=
PLAYORDER=
